<svg xmlns="http://www.w3.org/2000/svg" viewBox="0 0 16 16" fill="currentColor"><path d="M8 5a1.5 1.5 0 1 0 0-3 1.5 1.5 0 0 0 0 3m4 3a1.5 1.5 0 1 0 0-3 1.5 1.5 0 0 0 0 3M5.5 11a1.5 1.5 0 1 1-3 0 1.5 1.5 0 0 1 3 0m.5-4a1.5 1.5 0 1 0 0-3 1.5 1.5 0 0 0 0 3"/><path d="M16 8c0 3.15-1.866 2.585-3.567 2.07C11.42 9.763 10.465 9.5 10 9.5c-.866 0-1.389.538-1.884 1.052-.493.513-.999 1.044-2.116 1.044-1.117 0-1.623-.531-2.116-1.044C3.389 10.038 2.866 9.5 2 9.5c-.857 0-1.518.087-2 .157V8c0-3.866 2.686-7 6-7s6 3.134 6 7"/></svg>
