<?xml version="1.0" encoding="UTF-8" standalone="no"?>
<!-- Created with Inkscape (http://www.inkscape.org/) -->

<svg
   width="155mm"
   height="155mm"
   viewBox="0 0 155 155"
   version="1.1"
   id="svg1"
   inkscape:version="1.3 (0e150ed, 2023-07-21)"
   sodipodi:docname="jmail.svg"
   xmlns:inkscape="http://www.inkscape.org/namespaces/inkscape"
   xmlns:sodipodi="http://sodipodi.sourceforge.net/DTD/sodipodi-0.dtd"
   xmlns="http://www.w3.org/2000/svg"
   xmlns:svg="http://www.w3.org/2000/svg">
  <sodipodi:namedview
     id="namedview1"
     pagecolor="#ffffff"
     bordercolor="#000000"
     borderopacity="0.25"
     inkscape:showpageshadow="2"
     inkscape:pageopacity="0.0"
     inkscape:pagecheckerboard="0"
     inkscape:deskcolor="#d1d1d1"
     inkscape:document-units="mm"
     inkscape:zoom="0.38796047"
     inkscape:cx="-183.00833"
     inkscape:cy="658.57224"
     inkscape:window-width="1800"
     inkscape:window-height="1102"
     inkscape:window-x="0"
     inkscape:window-y="39"
     inkscape:window-maximized="1"
     inkscape:current-layer="layer1" />
  <defs
     id="defs1" />
  <g
     inkscape:label="Calque 1"
     inkscape:groupmode="layer"
     id="layer1">
    <path
       id="rect1-2-9-1"
       style="fill:#5a12fa;fill-opacity:1;stroke:none;stroke-width:0.128556;stroke-linecap:round;stroke-linejoin:round;paint-order:fill markers stroke"
       d="m 2.5517202,17.099237 c -0.12348,-4.04294 1.49577,-8.0815976 4.78007,-10.9243864 3.3079188,-2.86324 7.5737588,-3.87739 10.7949788,-3.625415 0.79007,-0.14241 120.646091,0.281975 120.646091,0.281975 7.50792,0.002 13.58592,6.0474388 13.6281,13.5552464 0.0422,7.5078 -5.96825,13.55094 -13.47618,13.54904 l -92.611391,-0.0238 32.19442,37.194631 c 4.27223,4.93574 4.56655,11.89147 2.12076,15.48624 -0.42986,0.7225 -26.41023,31.280912 -26.41023,31.280912 L 17.014919,114.25764 49.732309,76.459438 6.0388502,25.979837 c -2.24116,-2.58923 -3.39109,-5.73608 -3.48713,-8.8806 z"
       sodipodi:nodetypes="ssccsccccccccs" />
    <path
       id="path1"
       style="fill:#5a12fa;fill-opacity:1;stroke:none;stroke-width:0.128556;stroke-linecap:round;stroke-linejoin:round;paint-order:fill markers stroke"
       d="m 115.48237,49.235298 c -7.52431,-0.005 -13.56973,6.04798 -13.55473,13.57229 0.015,7.5243 6.08469,13.58642 13.60899,13.59142 l 2.08721,0.0021 8.53746,0.0062 -0.006,16.88527 h -0.004 l -0.0114,31.778932 -111.11517,-0.0439 c -7.5243078,-0.005 -13.5697278,6.04799 -13.5547278,13.5723 0.015,7.52428 6.08469,13.58642 13.6089878,13.59142 l 124.43426,-0.0119 c 9.20697,0.002 13.74646,-7.94972 13.74903,-15.11122 l 0.0119,-34.63045 h 0.004 l 0.0134,-39.388282 c 10e-4,-0.0681 0.005,-0.13531 0.005,-0.20361 -0.015,-7.52427 -6.0847,-13.58641 -13.60899,-13.59141 l -22.06377,-0.01706 z" />
    <rect
       style="fill:#5a12fa;fill-opacity:1;stroke:none;stroke-width:0.264583;stroke-linecap:round;stroke-linejoin:round;paint-order:fill markers stroke"
       id="rect2"
       width="0.82205534"
       height="5.2211623"
       x="27.661062"
       y="82.449928"
       ry="0" />
  </g>
</svg>
