<svg viewBox="0 0 155 155" xmlns="http://www.w3.org/2000/svg">
  <path fill="#0a84ff" d="m 2.5517202,17.099237 c -0.12348,-4.04294 1.49577,-8.0815976 4.78007,-10.9243864 3.3079188,-2.86324 7.5737588,-3.87739 10.7949788,-3.625415 0.79007,-0.14241 120.646091,0.281975 120.646091,0.281975 7.50792,0.002 13.58592,6.0474388 13.6281,13.5552464 0.0422,7.5078 -5.96825,13.55094 -13.47618,13.54904 l -92.611391,-0.0238 32.19442,37.194631 c 4.27223,4.93574 4.56655,11.89147 2.12076,15.48624 -0.42986,0.7225 -26.41023,31.280912 -26.41023,31.280912 L 17.014919,114.25764 49.732309,76.459438 6.0388502,25.979837 c -2.24116,-2.58923 -3.39109,-5.73608 -3.48713,-8.8806 z"/>
  <path fill="#0a84ff" d="m 115.48237,49.235298 c -7.52431,-0.005 -13.56973,6.04798 -13.55473,13.57229 0.015,7.5243 6.08469,13.58642 13.60899,13.59142 l 2.08721,0.0021 8.53746,0.0062 -0.006,16.88527 h -0.004 l -0.0114,31.778932 -111.11517,-0.0439 c -7.5243078,-0.005 -13.5697278,6.04799 -13.5547278,13.5723 0.015,7.52428 6.08469,13.58642 13.6089878,13.59142 l 124.43426,-0.0119 c 9.20697,0.002 13.74646,-7.94972 13.74903,-15.11122 l 0.0119,-34.63045 h 0.004 l 0.0134,-39.388282 c 10e-4,-0.0681 0.005,-0.13531 0.005,-0.20361 -0.015,-7.52427 -6.0847,-13.58641 -13.60899,-13.59141 l -22.06377,-0.01706 z"/>
</svg>
